<svg xmlns="http://www.w3.org/2000/svg" xmlns:xlink="http://www.w3.org/1999/xlink" version="1.1" x="0px" y="0px" viewBox="0 0 100 125" enable-background="new 0 0 100 100" xml:space="preserve"><path d="M60.265,87.542L60.265,87.542c-2.499,0-4.836-0.962-6.58-2.71L15.152,46.3c-1.655-1.652-2.611-3.871-2.691-6.246  L12.46,21.737c0.005-5.111,4.165-9.269,9.273-9.27l18.246-0.01c2.443,0.078,4.665,1.036,6.32,2.699l38.532,38.532  c1.744,1.742,2.706,4.077,2.708,6.574c0.001,2.497-0.958,4.834-2.702,6.58L66.84,84.837C65.096,86.582,62.76,87.542,60.265,87.542z   M39.916,16.457l-18.182,0.011c-2.906,0-5.271,2.365-5.274,5.271v18.248c0.044,1.289,0.584,2.549,1.52,3.483l38.535,38.536  c0.989,0.991,2.32,1.537,3.75,1.537c1.427,0,2.758-0.545,3.747-1.534l17.997-17.995c0.987-0.989,1.531-2.32,1.531-3.749  c-0.001-1.429-0.547-2.76-1.535-3.748L43.469,17.981C42.531,17.041,41.271,16.5,39.916,16.457z M31.32,39.982  c-4.775,0-8.662-3.886-8.663-8.663c0.003-4.778,3.889-8.664,8.663-8.664c0,0,0,0,0.001,0c4.775,0.001,8.662,3.887,8.663,8.663  C39.983,36.095,36.097,39.981,31.32,39.982z M31.321,24.655l-0.001,2c-2.57,0-4.662,2.093-4.663,4.665  c0.001,2.57,2.093,4.662,4.663,4.662c2.571,0,4.663-2.093,4.664-4.664c-0.001-2.57-2.093-4.662-4.664-4.663L31.321,24.655z"/><text x="0" y="115" fill="#000000" font-size="5px" font-weight="bold" font-family="'Helvetica Neue', Helvetica, Arial-Unicode, Arial, Sans-serif">Created by Kidiladon</text><text x="0" y="120" fill="#000000" font-size="5px" font-weight="bold" font-family="'Helvetica Neue', Helvetica, Arial-Unicode, Arial, Sans-serif">from the Noun Project</text></svg>